<?xml version="1.0" standalone="no"?>
<!DOCTYPE svg PUBLIC "-//W3C//DTD SVG 20010904//EN"
 "http://www.w3.org/TR/2001/REC-SVG-20010904/DTD/svg10.dtd">
<svg version="1.0" xmlns="http://www.w3.org/2000/svg"
 width="1167.000000pt" height="1280.000000pt" viewBox="0 0 1167.000000 1280.000000"
 preserveAspectRatio="xMidYMid meet">
<metadata>
Created by potrace 1.15, written by Peter Selinger 2001-2017
</metadata>
<g transform="translate(0.000000,1280.000000) scale(0.100000,-0.100000)"
fill="#000000" stroke="none">
<path d="M5631 12789 c-649 -73 -1244 -440 -1576 -973 l-45 -73 -119 -6 c-356
-19 -721 -134 -1017 -317 -263 -164 -520 -420 -679 -676 l-38 -61 -126 -6
c-684 -34 -1330 -415 -1693 -1000 -106 -170 -206 -404 -257 -602 -127 -488
-69 -1023 159 -1479 l55 -110 -66 -133 c-291 -584 -293 -1278 -5 -1870 l64
-131 -58 -113 c-301 -593 -305 -1291 -10 -1894 317 -649 927 -1084 1654 -1180
64 -8 146 -15 181 -15 l65 0 37 -61 c289 -471 763 -815 1312 -954 111 -27 264
-51 401 -60 l96 -7 73 -110 c336 -506 852 -835 1466 -935 149 -24 465 -24 621
0 204 32 425 99 609 186 342 162 659 440 868 762 l56 85 148 12 c679 51 1262
391 1639 953 l64 96 114 7 c457 27 891 193 1236 473 90 73 250 234 321 323
515 642 612 1530 249 2274 l-58 119 68 138 c292 597 290 1296 -5 1883 l-54
108 58 117 c104 207 171 415 209 651 26 162 23 486 -7 653 -39 225 -92 387
-193 600 l-52 107 -87 0 c-421 0 -898 -176 -1268 -469 -112 -88 -304 -289
-381 -400 -92 -132 -95 -134 -54 -51 279 569 290 1230 31 1818 -25 56 -44 102
-42 102 2 0 18 -24 36 -52 94 -148 283 -350 443 -477 346 -273 749 -426 1204
-457 64 -4 102 -3 102 3 0 22 -144 226 -234 330 -237 276 -582 506 -931 622
-194 65 -448 111 -610 111 l-60 0 -45 72 c-182 295 -453 555 -765 730 -261
147 -596 249 -867 263 -171 10 -157 3 -227 109 -117 181 -255 338 -410 467
-307 258 -670 423 -1061 485 -117 19 -426 26 -539 13z m455 -310 c348 -418
874 -689 1444 -745 l75 -8 -120 -12 c-591 -62 -1145 -369 -1484 -825 -103
-139 -104 -140 -67 -64 196 406 255 903 160 1356 -30 146 -83 306 -140 428
-24 51 -44 96 -44 98 0 3 25 -30 56 -73 31 -44 85 -113 120 -155z m-307 170
c-36 -72 -106 -261 -133 -359 -128 -476 -90 -974 110 -1435 24 -55 36 -89 26
-75 -172 250 -370 448 -602 602 -114 76 -340 190 -460 233 -164 58 -429 115
-537 115 -24 0 -43 5 -43 10 0 6 20 10 45 10 110 0 351 49 520 106 383 129
727 370 983 692 45 56 86 111 92 122 21 39 20 19 -1 -21z m-1664 -1074 c118
-171 295 -353 466 -481 307 -228 622 -355 1029 -414 78 -11 108 -18 81 -19
-76 -2 -252 -31 -373 -61 -508 -128 -938 -431 -1250 -880 -10 -14 3 18 27 71
123 269 195 598 195 894 0 296 -73 625 -196 885 -50 105 -49 106 21 5z m-201
-19 c-208 -439 -251 -987 -115 -1468 32 -111 93 -274 137 -361 32 -64 28 -60
-32 28 -289 425 -731 732 -1239 860 -72 19 -178 39 -235 45 -166 18 -180 25
-68 33 131 9 319 48 473 98 146 48 381 162 505 244 204 137 399 322 540 513
41 56 76 102 77 102 1 0 -18 -43 -43 -94z m3935 -48 c357 -481 925 -797 1521
-846 l95 -8 -120 -12 c-501 -53 -935 -251 -1284 -587 -106 -102 -229 -248
-290 -342 -18 -29 -35 -53 -36 -53 -2 0 18 46 45 103 93 195 154 404 186 632
22 165 15 483 -15 641 -30 162 -82 332 -145 480 -30 71 -49 120 -43 110 7 -11
45 -64 86 -118z m-244 28 c-144 -308 -214 -694 -187 -1030 21 -255 74 -471
171 -701 27 -64 48 -116 46 -114 -2 2 -29 41 -62 86 -263 367 -647 647 -1080
787 -129 41 -322 82 -443 92 l-85 8 130 16 c180 23 279 45 430 95 327 107 601
278 850 529 72 73 161 175 200 229 38 53 71 97 72 97 1 0 -18 -42 -42 -94z
m-5340 -1021 c337 -486 881 -813 1480 -890 71 -9 132 -18 134 -21 2 -2 -17 -4
-44 -4 -69 0 -245 -27 -356 -55 -306 -78 -597 -222 -837 -417 -112 -91 -263
-248 -345 -358 -38 -52 -74 -99 -78 -104 -5 -5 11 35 35 90 247 563 243 1210
-11 1754 -49 105 -48 105 22 5z m3690 -10 c289 -416 737 -724 1240 -849 100
-25 283 -55 346 -57 19 -1 -26 -9 -99 -20 -233 -32 -409 -78 -588 -155 -372
-159 -714 -437 -919 -746 -21 -32 -39 -58 -40 -58 -2 0 19 48 45 108 96 215
157 440 181 671 14 139 7 407 -16 541 -33 198 -105 430 -182 585 -40 80 -35
77 32 -20z m-3902 -27 c-127 -290 -182 -553 -183 -873 0 -270 41 -499 137
-754 19 -53 48 -122 64 -153 16 -32 27 -58 25 -58 -2 0 -34 42 -70 93 -307
431 -779 736 -1304 843 -70 14 -167 28 -215 31 -98 7 -129 23 -43 23 80 0 254
28 383 61 375 96 736 307 1004 585 80 84 180 207 218 267 12 20 24 37 26 37 2
0 -17 -46 -42 -102z m3713 25 c-116 -231 -190 -538 -203 -833 -13 -317 48
-636 182 -944 24 -56 37 -90 27 -77 -378 544 -919 874 -1545 944 l-112 13 140
17 c599 74 1149 396 1482 870 30 42 57 77 59 77 2 0 -11 -30 -30 -67z m3694
-18 c-96 -208 -156 -417 -185 -638 -17 -136 -20 -384 -5 -507 27 -220 97 -469
184 -658 25 -53 38 -86 28 -72 -151 217 -251 332 -397 457 -328 283 -716 456
-1144 511 -75 9 -122 18 -106 19 446 38 809 173 1155 432 175 131 364 329 475
499 15 23 29 42 31 42 2 0 -15 -38 -36 -85z m-9069 -997 c102 -160 315 -384
484 -510 308 -230 673 -373 1065 -418 109 -13 127 -20 49 -20 -65 0 -274 -33
-382 -61 -464 -118 -898 -411 -1179 -796 -33 -46 -62 -83 -64 -83 -1 0 12 33
30 73 156 342 221 722 185 1083 -23 236 -90 490 -182 687 -25 53 -44 97 -42
97 1 0 18 -24 36 -52z m3690 -10 c139 -217 404 -472 650 -625 265 -165 616
-283 920 -310 l84 -7 -120 -13 c-606 -69 -1140 -372 -1493 -848 -41 -55 -76
-102 -78 -104 -3 -3 16 38 40 91 256 548 258 1192 6 1761 -26 59 -46 107 -45
107 2 0 18 -24 36 -52z m3524 -60 c-88 -187 -158 -432 -186 -648 -17 -137 -14
-393 5 -535 31 -218 104 -463 190 -633 20 -39 36 -75 36 -79 0 -4 -27 33 -61
83 -83 122 -117 162 -233 282 -345 355 -790 572 -1296 633 l-105 13 112 12
c622 66 1177 393 1533 902 24 34 45 62 46 62 2 0 -17 -42 -41 -92z m294 -121
c72 -88 243 -255 331 -324 221 -172 507 -314 774 -383 128 -33 285 -60 348
-60 87 0 68 -17 -26 -23 -129 -9 -317 -48 -471 -98 -149 -49 -382 -162 -510
-248 -198 -132 -392 -317 -528 -503 -39 -53 -72 -96 -74 -95 -1 2 12 32 29 67
74 156 138 361 173 555 22 118 31 439 16 573 -24 218 -91 467 -177 651 -24 52
-44 96 -44 99 0 3 22 -27 50 -67 27 -40 76 -105 109 -144z m3399 106 c-92
-195 -160 -437 -188 -663 -14 -120 -12 -386 4 -510 28 -207 91 -431 171 -607
20 -42 34 -75 31 -73 -2 3 -39 52 -81 110 -91 123 -295 331 -413 419 -221 167
-489 298 -745 366 -113 30 -311 65 -380 66 l-52 1 40 8 c22 5 94 15 160 24
346 45 689 187 980 404 170 127 361 327 473 495 25 37 46 67 48 67 1 0 -20
-48 -48 -107z m-7395 21 c-256 -554 -257 -1218 -2 -1774 21 -47 31 -74 21 -60
-379 545 -930 880 -1556 944 l-121 12 120 12 c605 63 1164 382 1514 865 30 42
57 77 58 77 1 0 -14 -34 -34 -76z m-1852 -1065 c-253 -542 -255 -1216 -5
-1758 19 -41 32 -76 30 -78 -2 -3 -10 6 -17 19 -54 101 -292 361 -439 478
-238 190 -521 330 -810 401 -133 32 -304 59 -380 59 -82 0 -56 7 74 19 417 40
823 206 1146 468 140 114 331 320 408 440 14 23 28 41 29 39 2 -2 -14 -41 -36
-87z m242 -31 c288 -384 702 -661 1169 -783 134 -34 308 -64 389 -66 24 -1 -8
-7 -71 -15 -622 -73 -1140 -362 -1496 -837 -42 -56 -78 -104 -81 -106 -2 -3
16 40 40 95 248 561 247 1199 -3 1753 -22 47 -32 75 -22 61 9 -14 43 -60 75
-102z m3753 -91 c221 -273 573 -523 914 -647 162 -60 433 -120 538 -120 75 0
45 -17 -41 -23 -177 -12 -430 -78 -630 -163 -362 -155 -688 -426 -929 -774
-10 -14 3 18 27 70 89 192 160 447 185 665 41 360 -29 788 -181 1114 -21 46
-39 86 -39 89 0 3 23 -28 51 -69 28 -41 76 -104 105 -142z m3415 136 c-83
-168 -148 -369 -187 -578 -21 -119 -30 -461 -15 -591 25 -214 93 -461 175
-638 19 -42 33 -76 31 -76 -1 0 -33 43 -71 96 -81 114 -256 300 -368 390 -293
237 -634 391 -1000 454 -65 11 -139 20 -164 20 -34 0 -43 3 -32 10 8 5 34 10
57 10 22 0 94 9 160 20 428 73 817 269 1126 569 103 99 227 247 286 339 18 28
35 52 37 52 2 0 -13 -35 -35 -77z m-3721 -40 c-247 -557 -249 -1179 -4 -1737
24 -54 42 -97 40 -95 -2 2 -39 51 -82 109 -353 476 -883 779 -1489 852 -70 8
-95 14 -70 16 139 9 386 57 520 100 418 136 801 412 1055 759 41 57 76 103 76
103 1 0 -20 -48 -46 -107z m3939 -27 c286 -388 727 -682 1194 -796 121 -30
302 -59 380 -61 23 -1 -14 -8 -83 -15 -270 -29 -504 -95 -735 -208 -327 -160
-607 -399 -813 -695 -29 -41 -52 -72 -52 -70 0 3 17 41 39 84 268 551 276
1208 20 1790 -26 61 -43 101 -36 91 7 -10 45 -64 86 -120z m-1872 -1033 c254
-359 638 -640 1073 -783 111 -36 289 -75 415 -91 l100 -13 -112 -13 c-610 -69
-1185 -411 -1511 -895 -25 -38 -46 -68 -48 -68 -1 0 15 37 36 83 82 176 138
357 176 562 21 118 30 442 15 571 -26 229 -95 479 -186 672 -24 53 -39 90 -32
80 6 -9 40 -56 74 -105z m-7248 -147 c271 -306 652 -538 1056 -641 123 -32
311 -63 393 -66 20 -1 -1 -6 -48 -10 -452 -47 -835 -202 -1177 -478 -141 -113
-306 -292 -415 -451 -9 -14 3 20 27 76 135 311 193 616 182 944 -11 290 -72
557 -183 799 -19 41 -34 76 -34 79 0 2 26 -32 58 -76 31 -44 95 -123 141 -176z
m7048 187 c-156 -312 -235 -723 -208 -1074 20 -254 92 -535 190 -745 22 -46
38 -84 36 -84 -1 0 -18 24 -36 53 -177 276 -504 561 -824 716 -236 115 -580
211 -757 211 -82 0 -53 17 40 23 355 23 799 199 1106 441 163 127 330 304 434
459 25 37 47 67 49 67 2 0 -12 -30 -30 -67z m-3709 -10 c-82 -182 -147 -397
-180 -598 -8 -51 -13 -165 -12 -315 0 -212 3 -248 27 -373 30 -153 95 -362
151 -481 20 -44 36 -81 36 -83 0 -3 -25 30 -56 73 -348 487 -897 805 -1514
878 -63 8 -96 14 -73 15 75 2 265 31 368 57 400 100 726 283 1010 569 66 66
154 166 195 223 41 56 76 102 77 102 1 0 -12 -30 -29 -67z m344 -180 c302
-345 737 -594 1196 -683 59 -12 144 -24 189 -27 45 -3 80 -9 78 -13 -2 -4 -44
-10 -92 -13 -303 -20 -689 -156 -961 -338 -222 -150 -427 -348 -571 -553 -22
-33 -41 -57 -41 -54 0 3 20 47 44 99 83 179 143 391 171 602 17 135 20 383 5
507 -26 211 -95 464 -174 634 -20 44 -36 81 -36 84 0 3 26 -31 58 -75 31 -44
92 -121 134 -170z m7042 133 c-118 -250 -194 -595 -194 -886 0 -292 76 -635
195 -888 51 -107 50 -108 -20 -7 -348 502 -928 842 -1535 901 l-75 8 130 16
c256 34 471 98 692 205 316 154 616 410 802 683 23 34 44 62 46 62 2 0 -16
-42 -41 -94z m-9228 -1003 c-75 -151 -148 -385 -181 -583 -26 -152 -30 -410
-11 -573 27 -220 89 -446 172 -626 19 -41 34 -76 34 -79 0 -3 -19 21 -41 54
-182 260 -435 486 -716 643 -241 133 -489 212 -783 250 l-135 17 94 8 c330 25
690 151 982 344 221 145 432 351 569 552 22 33 43 60 45 60 3 0 -10 -30 -29
-67z m3983 -147 c342 -421 865 -703 1415 -765 49 -6 90 -12 93 -14 2 -2 -38
-7 -88 -10 -219 -16 -491 -93 -724 -206 -311 -151 -572 -366 -773 -636 -41
-55 -77 -102 -79 -105 -3 -3 7 19 22 49 87 173 159 415 190 637 18 128 21 402
5 530 -26 214 -96 461 -180 641 -22 47 -40 88 -40 91 0 3 23 -28 51 -69 28
-41 77 -105 108 -143z m-3649 -41 c230 -265 561 -487 903 -604 180 -62 409
-110 537 -112 47 -1 51 -2 25 -9 -16 -5 -80 -13 -140 -19 -335 -33 -692 -174
-1007 -397 -105 -75 -365 -333 -442 -441 -33 -46 -61 -81 -64 -79 -2 2 9 28
23 56 68 134 138 362 171 554 22 128 29 417 15 557 -23 216 -79 432 -163 624
-22 50 -42 97 -45 105 -3 8 20 -22 53 -67 32 -45 93 -121 134 -168z m7043 138
c-88 -188 -156 -432 -183 -653 -14 -120 -12 -386 4 -510 28 -206 83 -404 162
-584 24 -54 42 -97 40 -95 -2 2 -39 51 -82 108 -207 277 -475 497 -786 646
-229 109 -493 184 -713 202 l-90 7 135 17 c490 61 923 268 1259 601 94 92 225
249 270 321 12 20 24 37 26 37 2 0 -17 -44 -42 -97z m-3709 -14 c-97 -223
-156 -460 -176 -711 -27 -334 42 -721 182 -1028 42 -90 42 -91 -64 54 -123
167 -371 391 -568 514 -98 61 -269 145 -383 187 -176 66 -444 125 -567 125
-82 0 -53 17 40 23 125 8 326 51 482 103 424 141 801 421 1060 787 18 26 35
47 36 47 2 0 -17 -46 -42 -101z m4021 -119 c218 -262 523 -482 845 -610 179
-71 465 -140 583 -140 68 0 35 -10 -84 -26 -372 -49 -703 -183 -1005 -406
-138 -103 -328 -292 -429 -428 -42 -58 -79 -107 -81 -109 -3 -3 14 34 36 83
82 177 142 381 176 596 22 144 22 447 -1 595 -32 210 -106 457 -181 607 -36
72 -29 69 27 -12 28 -41 79 -109 114 -150z m-9295 -954 c239 -319 620 -591
1015 -724 163 -55 391 -101 510 -103 64 -1 32 -17 -37 -18 -25 -1 -99 -10
-165 -21 -447 -76 -846 -283 -1155 -597 -126 -129 -148 -154 -222 -257 -31
-43 -56 -76 -56 -73 0 2 18 43 40 90 133 283 198 617 187 951 -10 300 -69 552
-191 822 -19 44 -28 68 -18 54 9 -14 51 -70 92 -124z m3425 17 c-117 -266
-185 -585 -185 -863 0 -282 74 -627 189 -877 43 -93 43 -93 -64 51 -85 116
-292 320 -419 414 -311 230 -711 385 -1053 409 -89 6 -115 23 -35 23 26 0 92
7 147 15 356 54 708 204 997 427 125 97 296 272 388 396 41 56 76 102 77 102
0 0 -18 -44 -42 -97z m3698 -5 c-129 -292 -185 -562 -185 -883 1 -305 64 -601
187 -871 20 -43 34 -76 32 -74 -3 3 -39 51 -82 108 -361 481 -897 784 -1495
846 l-115 12 80 8 c427 39 799 182 1140 439 113 85 316 293 405 414 41 57 76
103 77 103 0 0 -19 -46 -44 -102z m306 -98 c333 -412 853 -696 1400 -763 l104
-13 -109 -12 c-251 -28 -474 -94 -703 -207 -344 -171 -604 -398 -833 -725 -10
-14 1 16 23 65 88 194 152 421 180 635 18 136 15 421 -6 555 -32 210 -106 457
-181 607 -36 72 -29 68 32 -18 31 -44 73 -99 93 -124z m-3734 65 c72 -96 253
-280 350 -356 325 -256 683 -405 1090 -456 77 -10 124 -19 105 -20 -503 -36
-953 -228 -1324 -567 -91 -82 -234 -247 -298 -344 -21 -31 -38 -54 -38 -51 0
3 18 44 39 90 238 509 259 1118 57 1646 -19 50 -44 109 -55 132 -25 48 -27 66
-3 31 9 -14 44 -61 77 -105z m7130 32 c-253 -533 -260 -1186 -19 -1742 23 -55
35 -89 26 -75 -67 98 -152 201 -242 294 -186 191 -352 312 -595 431 -220 108
-415 167 -673 204 -75 11 -109 19 -84 20 50 1 226 27 291 42 401 96 734 272
1014 538 98 93 212 225 277 321 22 33 43 60 45 60 2 0 -16 -42 -40 -93z
m-8903 -1184 c221 -261 548 -485 888 -608 155 -56 304 -91 505 -117 78 -10 90
-14 55 -16 -141 -8 -363 -51 -515 -101 -421 -136 -832 -436 -1067 -780 -73
-108 -74 -108 -22 4 89 192 157 428 184 645 15 127 12 412 -6 542 -28 201
-104 460 -178 606 -14 28 -26 54 -26 58 0 3 25 -29 56 -72 31 -44 88 -116 126
-161z m-331 162 c-151 -318 -225 -730 -192 -1075 23 -245 91 -505 180 -696 23
-48 41 -89 41 -91 0 -3 -25 30 -56 73 -218 304 -474 521 -807 685 -227 111
-515 192 -730 206 -106 7 -95 18 24 26 371 25 813 207 1137 468 112 91 267
252 352 368 41 55 76 99 77 97 1 -1 -11 -29 -26 -61z m3688 -19 c-56 -121
-124 -331 -153 -476 -86 -424 -37 -872 140 -1274 24 -54 42 -97 40 -95 -2 2
-39 51 -81 109 -96 130 -298 333 -425 427 -316 234 -672 375 -1055 417 l-110
12 70 8 c520 55 948 249 1304 591 101 97 233 252 279 328 13 20 25 37 27 37 2
0 -14 -38 -36 -84z m280 -91 c249 -313 606 -561 991 -689 145 -48 336 -90 465
-102 l80 -7 -138 -18 c-621 -79 -1165 -412 -1519 -929 -9 -14 3 20 28 75 168
377 225 779 168 1185 -27 192 -105 452 -180 602 -34 68 -30 71 13 8 20 -30 62
-86 92 -125z m3437 128 c-49 -98 -118 -289 -151 -417 -51 -201 -69 -365 -62
-586 9 -310 60 -532 191 -835 15 -35 18 -50 8 -35 -123 176 -293 361 -442 480
-308 245 -660 393 -1075 450 -71 10 -113 18 -91 19 64 2 244 31 353 57 426
102 823 343 1105 671 48 57 109 135 135 173 25 39 48 70 50 70 2 0 -7 -21 -21
-47z m305 -199 c222 -262 517 -472 844 -600 141 -55 341 -107 475 -124 170
-21 174 -23 70 -32 -602 -54 -1183 -395 -1539 -902 -22 -33 -41 -57 -41 -54 0
3 20 48 45 100 118 249 195 595 195 877 0 286 -75 633 -190 878 -22 47 -40 88
-40 90 0 3 25 -30 56 -73 31 -44 87 -115 125 -160z m-5887 -939 c-242 -562
-238 -1173 10 -1731 38 -86 41 -88 -69 60 -273 367 -712 653 -1180 770 -110
28 -286 55 -361 57 -32 1 -1 8 86 19 152 19 221 32 330 62 360 97 672 274 933
527 98 95 230 250 275 324 13 20 25 37 26 37 2 0 -21 -56 -50 -125z m268 -15
c127 -171 333 -362 525 -487 279 -182 599 -297 933 -336 l105 -12 -115 -14
c-594 -67 -1126 -372 -1478 -846 -41 -55 -76 -102 -78 -104 -3 -3 13 33 35 80
129 281 194 577 194 894 0 320 -70 638 -199 910 -28 58 -29 59 78 -85z m3771
-109 c293 -345 736 -604 1193 -696 70 -15 166 -29 213 -32 89 -7 89 -21 -1
-22 -67 -1 -263 -36 -370 -67 -472 -132 -876 -412 -1162 -804 -27 -36 -50 -67
-52 -70 -3 -2 10 29 29 70 78 174 135 356 168 546 30 169 33 489 6 660 -32
199 -105 440 -178 586 -16 32 -29 60 -29 64 0 3 25 -29 56 -72 31 -44 88 -117
127 -163z m-333 145 c-196 -424 -243 -935 -129 -1396 33 -132 88 -290 133
-377 37 -74 33 -75 -16 -7 -124 175 -337 392 -499 506 -305 217 -634 344
-1009 389 l-105 13 135 17 c457 58 854 242 1194 552 90 82 221 232 287 330 22
31 42 57 44 57 2 0 -14 -38 -35 -84z m-1829 -1015 c-72 -140 -148 -380 -182
-571 -27 -149 -36 -418 -20 -571 23 -221 90 -469 175 -653 20 -43 36 -81 36
-83 0 -2 -35 42 -77 99 -353 475 -891 782 -1488 849 l-110 13 115 12 c397 42
773 192 1092 436 124 95 306 280 398 406 41 56 76 102 78 102 1 0 -7 -18 -17
-39z m224 -79 c291 -388 711 -665 1191 -787 97 -24 265 -52 354 -58 40 -2 38
-3 -25 -10 -544 -58 -989 -267 -1351 -632 -55 -56 -135 -148 -178 -206 -43
-57 -80 -106 -82 -108 -2 -2 17 41 41 96 193 438 235 928 121 1381 -32 125
-89 289 -127 364 -16 31 -29 61 -29 64 0 9 -4 15 85 -104z"/>
</g>
</svg>
