<?xml version="1.0" standalone="no"?>
<!DOCTYPE svg PUBLIC "-//W3C//DTD SVG 20010904//EN"
 "http://www.w3.org/TR/2001/REC-SVG-20010904/DTD/svg10.dtd">
<svg version="1.0" xmlns="http://www.w3.org/2000/svg"
 width="2000.000000pt" height="2080.000000pt" viewBox="0 0 2000.000000 2080.000000"
 preserveAspectRatio="xMidYMid meet">
<metadata>
Created by potrace 1.15, written by Peter Selinger 2001-2017
</metadata>
<g transform="translate(0.000000,2080.000000) scale(0.100000,-0.100000)"
fill="#000000" stroke="none">
<path d="M0 20769 c1 -26 216 -407 954 -1684 524 -907 952 -1651 951 -1653 -1
-2 -424 241 -940 538 -515 298 -943 544 -951 547 -10 4 -14 -4 -14 -29 l0 -33
935 -540 936 -540 -936 -3 -935 -2 0 -30 0 -30 941 -2 942 -3 -939 -542 -939
-542 -3 -35 c-2 -20 -1 -36 1 -36 3 0 433 247 956 549 523 302 951 548 951
547 0 -2 -430 -747 -955 -1657 l-955 -1654 0 -63 0 -63 936 -1622 c515 -892
945 -1637 957 -1655 l20 -34 -29 15 c-16 8 -443 254 -948 546 -506 292 -924
531 -928 531 -4 0 -8 -15 -8 -32 l1 -33 936 -540 937 -540 -937 -3 -937 -2 0
-30 0 -30 940 -2 939 -3 -926 -535 c-509 -294 -932 -539 -940 -545 -9 -7 -13
-23 -11 -43 l3 -32 910 526 c501 289 930 537 954 551 l45 26 -31 -54 c-17 -30
-447 -776 -957 -1658 l-926 -1604 0 -63 0 -63 931 -1613 c512 -887 943 -1633
957 -1658 l27 -45 -45 26 c-637 370 -1854 1069 -1861 1069 -6 0 -9 -15 -7 -32
3 -32 20 -43 939 -573 l935 -540 -938 -3 -938 -2 0 -30 0 -30 938 -2 939 -3
-936 -540 c-917 -529 -936 -541 -939 -573 -2 -19 1 -32 8 -32 6 0 154 83 328
184 174 101 596 344 937 541 341 197 624 360 630 363 5 3 -3 -14 -17 -39 -14
-24 -445 -770 -957 -1657 -803 -1392 -931 -1619 -931 -1653 0 -31 4 -39 18
-39 9 0 458 254 996 565 538 311 982 565 986 565 4 0 448 -254 986 -565 791
-457 985 -565 1014 -565 29 0 223 108 1014 565 538 311 982 565 986 565 4 0
448 -254 986 -565 791 -457 985 -565 1014 -565 29 0 223 108 1014 565 538 311
982 565 986 565 4 0 448 -254 986 -565 791 -457 985 -565 1014 -565 29 0 223
108 1014 565 538 311 982 565 986 565 4 0 448 -254 986 -565 791 -457 985
-565 1014 -565 29 0 223 108 1014 565 538 311 982 565 986 565 4 0 448 -254
986 -565 538 -311 987 -565 996 -565 14 0 18 8 18 39 0 34 -129 263 -931 1653
-512 887 -943 1633 -957 1657 -14 25 -22 42 -17 39 6 -3 289 -166 630 -363
341 -197 763 -440 937 -541 174 -101 322 -184 328 -184 7 0 10 13 8 32 -3 32
-22 44 -939 573 l-936 540 939 3 938 2 0 30 0 30 -938 2 -939 3 936 540 c919
530 936 541 939 573 2 17 -1 32 -7 32 -7 0 -1224 -699 -1861 -1069 l-45 -26
26 45 c15 25 446 771 958 1658 l931 1613 0 63 0 63 -926 1604 c-510 882 -940
1628 -957 1658 l-31 54 45 -26 c24 -14 454 -262 954 -551 l910 -526 3 32 c2
20 -2 36 -11 43 -8 6 -431 251 -940 545 l-926 535 939 3 940 2 0 30 0 30 -937
2 -937 3 937 540 936 540 1 33 c0 17 -4 32 -8 32 -4 0 -422 -239 -928 -531
-505 -292 -932 -538 -948 -546 l-29 -15 20 34 c12 18 442 763 957 1655 l936
1622 0 63 0 63 -955 1654 c-525 910 -955 1655 -955 1657 0 1 428 -245 951
-547 523 -302 953 -549 955 -549 2 0 4 15 4 34 l0 34 -941 544 -942 543 942 3
941 2 0 30 0 30 -935 2 -935 3 935 540 935 540 0 34 c0 24 -4 32 -14 28 -8 -3
-436 -249 -951 -547 -516 -297 -939 -540 -940 -538 -1 2 427 746 951 1653 737
1276 953 1658 954 1684 0 32 -1 33 -37 29 -28 -3 -303 -157 -1000 -560 l-963
-556 -967 559 -968 559 -65 0 -65 0 -968 -559 -967 -559 -968 559 -967 559
-65 0 -65 0 -967 -559 -968 -559 -967 559 -968 559 -65 0 -65 0 -967 -559
-968 -559 -967 559 -968 559 -65 0 -65 0 -968 -559 -967 -559 -963 556 c-697
403 -972 557 -999 560 -37 4 -38 3 -38 -29z m1062 -618 l908 -524 0 -1086 c0
-1066 -1 -1085 -19 -1056 -10 17 -432 746 -936 1620 -505 875 -920 1594 -923
1600 -3 5 10 0 29 -11 19 -11 442 -255 941 -543z m2845 552 c-3 -5 -417 -723
-922 -1598 -504 -874 -926 -1603 -936 -1620 -18 -29 -19 -9 -19 1056 l0 1086
938 541 c515 298 938 542 940 542 2 0 1 -3 -1 -7z m1156 -552 l907 -524 0
-1086 c0 -1066 -1 -1085 -19 -1056 -10 17 -432 746 -936 1620 -505 875 -920
1594 -923 1600 -3 5 10 0 29 -11 19 -11 442 -255 942 -543z m2844 552 c-3 -5
-417 -723 -922 -1598 -504 -874 -926 -1603 -936 -1620 -18 -29 -19 -9 -19
1056 l0 1086 938 541 c515 298 938 542 940 542 2 0 1 -3 -1 -7z m1156 -552
l907 -524 0 -1086 c0 -1066 -1 -1085 -19 -1056 -10 17 -432 746 -936 1620
-505 875 -920 1594 -923 1600 -3 5 10 0 29 -11 19 -11 442 -255 942 -543z
m2844 552 c-3 -5 -417 -723 -922 -1598 -504 -874 -926 -1603 -936 -1620 -18
-29 -19 -10 -19 1056 l0 1086 938 541 c515 298 938 542 940 542 2 0 1 -3 -1
-7z m1156 -552 l907 -524 0 -1086 c0 -1066 -1 -1085 -19 -1056 -10 17 -432
746 -936 1620 -505 875 -920 1594 -923 1600 -3 5 10 0 29 -11 19 -11 442 -255
942 -543z m2844 552 c-3 -5 -417 -723 -922 -1598 -504 -874 -926 -1603 -936
-1620 -18 -29 -19 -10 -19 1056 l0 1086 938 541 c515 298 938 542 940 542 2 0
1 -3 -1 -7z m1156 -552 l907 -524 0 -1086 c0 -1066 -1 -1085 -19 -1056 -10 17
-432 746 -936 1620 -505 875 -920 1594 -923 1600 -3 5 10 0 29 -11 19 -11 442
-255 942 -543z m2844 552 c-3 -5 -417 -723 -922 -1598 -504 -874 -926 -1603
-936 -1620 -18 -29 -19 -10 -19 1056 l0 1086 938 541 c515 298 938 542 940
542 2 0 1 -3 -1 -7z m-15944 -2194 c-13 -12 -1865 -1080 -1868 -1077 -1 2 419
733 934 1624 l936 1621 3 -1080 c1 -595 -1 -1084 -5 -1088z m1040 491 c498
-861 903 -1566 902 -1568 -1 -2 -423 240 -936 536 l-934 539 -2 1089 -2 1089
34 -60 c19 -33 441 -764 938 -1625z m2960 -491 c-13 -12 -1865 -1080 -1868
-1077 -1 2 419 733 934 1624 l936 1622 3 -1081 c1 -595 -1 -1084 -5 -1088z
m1040 491 c498 -861 903 -1566 902 -1568 -1 -2 -423 240 -936 536 l-934 539
-2 1089 -2 1089 34 -60 c19 -33 441 -764 938 -1625z m2960 -491 c-13 -12
-1865 -1080 -1868 -1077 -1 2 419 733 934 1624 l936 1622 3 -1081 c1 -595 -1
-1084 -5 -1088z m1040 491 c498 -861 903 -1566 902 -1568 -1 -2 -423 240 -936
536 l-934 539 -2 1089 -2 1089 34 -60 c19 -33 441 -764 938 -1625z m2960 -491
c-13 -12 -1865 -1080 -1868 -1077 -1 2 419 733 934 1624 l936 1622 3 -1081 c1
-595 -1 -1084 -5 -1088z m1040 491 c498 -861 903 -1566 902 -1568 -1 -2 -423
240 -936 536 l-934 539 -2 1089 -2 1089 34 -60 c19 -33 441 -764 938 -1625z
m-12059 -1090 l927 -535 -936 -3 c-514 -1 -1356 -1 -1870 0 l-935 3 927 537
c511 295 935 536 944 535 9 -1 433 -243 943 -537z m4000 0 l927 -535 -936 -3
c-514 -1 -1356 -1 -1870 0 l-935 3 927 537 c511 295 935 536 944 535 9 -1 433
-243 943 -537z m4000 0 l927 -535 -936 -3 c-514 -1 -1356 -1 -1870 0 l-935 3
927 537 c511 295 935 536 944 535 9 -1 433 -243 943 -537z m4000 0 l927 -535
-936 -3 c-514 -1 -1356 -1 -1870 0 l-935 3 927 537 c511 295 935 536 944 535
9 -1 433 -243 943 -537z m-11069 -608 c-6 -5 -430 -251 -943 -546 l-932 -538
-933 538 c-512 295 -936 541 -941 546 -6 4 838 8 1874 8 1036 0 1880 -4 1875
-8z m4000 0 c-6 -5 -430 -251 -943 -546 l-932 -538 -933 538 c-512 295 -936
541 -941 546 -6 4 838 8 1874 8 1036 0 1880 -4 1875 -8z m4000 0 c-6 -5 -430
-251 -943 -546 l-932 -538 -933 538 c-512 295 -936 541 -941 546 -6 4 838 8
1874 8 1036 0 1880 -4 1875 -8z m4000 0 c-6 -5 -430 -251 -943 -546 l-932
-538 -933 538 c-512 295 -936 541 -941 546 -6 4 838 8 1874 8 1036 0 1880 -4
1875 -8z m-13905 -2222 c0 -615 -4 -1080 -9 -1075 -8 9 -1862 3219 -1869 3236
-2 4 420 -236 937 -534 l940 -542 1 -1085z m1009 549 c-513 -888 -936 -1618
-940 -1624 -5 -5 -9 469 -9 1075 l1 1085 937 541 c515 297 938 540 940 539 1
-1 -417 -728 -929 -1616z m2991 -549 c0 -615 -4 -1080 -9 -1075 -8 9 -1862
3219 -1869 3236 -2 4 420 -236 937 -534 l940 -542 1 -1085z m1009 549 c-513
-888 -936 -1618 -940 -1624 -5 -5 -9 464 -9 1075 l1 1085 937 541 c515 297
938 540 940 539 1 -1 -417 -728 -929 -1616z m2991 -549 c0 -615 -4 -1080 -9
-1075 -8 9 -1862 3219 -1869 3236 -2 4 420 -236 937 -534 l940 -542 1 -1085z
m1009 549 c-513 -888 -936 -1618 -940 -1624 -5 -5 -9 464 -9 1075 l1 1085 937
541 c515 297 938 540 940 539 1 -1 -417 -728 -929 -1616z m2991 -549 c0 -608
-4 -1080 -9 -1075 -8 9 -1862 3219 -1869 3236 -2 4 420 -236 937 -534 l940
-542 1 -1085z m1009 549 c-513 -888 -936 -1618 -940 -1624 -5 -5 -9 464 -9
1075 l1 1085 937 541 c515 297 938 540 940 539 1 -1 -417 -728 -929 -1616z
m-15009 499 l0 -1083 -702 -405 c-387 -223 -810 -467 -941 -542 -131 -76 -236
-134 -234 -130 29 54 1871 3242 1874 3242 1 0 3 -487 3 -1082z m997 -528 c506
-877 925 -1605 932 -1617 8 -16 -58 18 -227 115 -130 75 -553 319 -940 542
l-702 405 0 1085 c0 596 4 1080 8 1075 5 -6 423 -728 929 -1605z m3003 528 l0
-1083 -702 -405 c-387 -223 -810 -467 -941 -542 -131 -76 -236 -134 -234 -130
25 47 1871 3242 1874 3242 1 0 3 -487 3 -1082z m997 -528 c506 -877 925 -1605
932 -1617 8 -16 -58 18 -227 115 -130 75 -553 319 -940 542 l-702 405 0 1085
c0 596 4 1080 8 1075 5 -6 423 -728 929 -1605z m3003 528 l0 -1083 -702 -405
c-387 -223 -810 -467 -941 -542 -131 -76 -236 -134 -234 -130 25 47 1871 3242
1874 3242 1 0 3 -487 3 -1082z m997 -528 c506 -877 925 -1605 932 -1617 8 -16
-58 18 -227 115 -130 75 -553 319 -940 542 l-702 405 0 1085 c0 596 4 1080 8
1075 5 -6 423 -728 929 -1605z m3003 528 l0 -1083 -702 -405 c-387 -223 -810
-467 -941 -542 -131 -76 -236 -134 -234 -130 25 47 1871 3242 1874 3242 1 0 3
-487 3 -1082z m985 -508 c500 -866 920 -1594 933 -1617 l24 -43 -239 138
c-131 75 -554 319 -941 542 l-702 405 0 1085 c0 596 4 1080 8 1075 5 -6 418
-719 917 -1585z m3015 508 l0 -1083 -702 -405 c-387 -223 -810 -467 -941 -542
-131 -76 -236 -134 -234 -130 25 47 1871 3242 1874 3242 1 0 3 -487 3 -1082z
m985 -508 c500 -866 920 -1594 933 -1617 l24 -43 -239 138 c-131 75 -554 319
-941 542 l-702 405 0 1085 c0 596 4 1080 8 1075 5 -6 418 -719 917 -1585z
m-16014 -1172 l940 -543 -941 -3 c-517 -1 -1363 -1 -1881 0 l-940 3 938 542
c516 298 939 542 941 543 2 0 426 -244 943 -542z m4000 0 l940 -543 -941 -3
c-517 -1 -1363 -1 -1881 0 l-940 3 938 542 c516 298 939 542 941 543 2 0 426
-244 943 -542z m4000 0 l940 -543 -941 -3 c-517 -1 -1363 -1 -1881 0 l-940 3
938 542 c516 298 939 542 941 543 2 0 426 -244 943 -542z m4000 0 l940 -543
-941 -3 c-517 -1 -1363 -1 -1881 0 l-940 3 938 542 c516 298 939 542 941 543
2 0 426 -244 943 -542z m4000 0 l940 -543 -941 -3 c-517 -1 -1363 -1 -1881 0
l-940 3 938 542 c516 298 939 542 941 543 2 0 426 -244 943 -542z m-15076
-616 c-20 -17 -1855 -1072 -1865 -1072 -9 0 -1807 1034 -1855 1066 -16 12 277
14 1855 14 1031 0 1870 -4 1865 -8z m4000 0 c-20 -17 -1855 -1072 -1865 -1072
-10 0 -1845 1055 -1864 1072 -6 4 833 8 1864 8 1031 0 1870 -4 1865 -8z m4000
0 c-20 -17 -1855 -1072 -1865 -1072 -10 0 -1845 1055 -1864 1072 -6 4 833 8
1864 8 1031 0 1870 -4 1865 -8z m4000 0 c-20 -17 -1855 -1072 -1865 -1072 -10
0 -1845 1055 -1864 1072 -6 4 833 8 1864 8 1031 0 1870 -4 1865 -8z m3990 -6
c-48 -32 -1846 -1066 -1855 -1066 -10 0 -1845 1055 -1864 1072 -6 4 833 8
1864 8 1578 0 1871 -2 1855 -14z m-18824 -585 l934 -539 3 -1088 c1 -598 0
-1086 -2 -1083 -2 2 -416 720 -921 1594 -504 875 -926 1605 -937 1623 -11 17
-18 32 -15 32 3 0 425 -243 938 -539z m2861 507 c-11 -18 -433 -748 -937
-1623 -505 -874 -919 -1592 -921 -1594 -2 -3 -3 485 -2 1083 l3 1088 930 538
c512 296 934 539 938 539 5 1 0 -14 -11 -31z m1139 -507 l934 -539 3 -1088 c1
-598 0 -1086 -2 -1083 -2 2 -416 720 -921 1594 -504 875 -926 1605 -937 1623
-11 17 -18 32 -15 32 3 0 425 -243 938 -539z m2861 507 c-11 -18 -433 -748
-937 -1623 -505 -874 -919 -1592 -921 -1594 -2 -3 -3 485 -2 1083 l3 1088 930
538 c512 296 934 539 938 539 5 1 0 -14 -11 -31z m1139 -507 l934 -539 3
-1088 c1 -598 0 -1086 -2 -1083 -2 2 -416 720 -921 1594 -504 875 -926 1605
-937 1623 -11 17 -18 32 -15 32 3 0 425 -243 938 -539z m2861 507 c-11 -18
-433 -748 -937 -1623 -505 -874 -919 -1592 -921 -1594 -2 -3 -3 485 -2 1083
l3 1088 930 538 c512 296 934 539 938 539 5 1 0 -14 -11 -31z m1139 -507 l934
-539 3 -1088 c1 -598 0 -1086 -2 -1083 -2 2 -416 720 -921 1594 -504 875 -926
1605 -937 1623 -11 17 -18 32 -15 32 3 0 425 -243 938 -539z m2861 507 c-11
-18 -433 -748 -937 -1623 -505 -874 -919 -1592 -921 -1594 -2 -3 -3 485 -2
1083 l3 1088 930 538 c512 296 934 539 938 539 5 1 0 -14 -11 -31z m1139 -507
l934 -539 3 -1088 c1 -598 0 -1086 -2 -1083 -2 2 -416 720 -921 1594 -504 875
-926 1605 -937 1623 -11 17 -18 32 -15 32 3 0 425 -243 938 -539z m2861 507
c-11 -18 -433 -748 -937 -1623 -505 -874 -919 -1592 -921 -1594 -2 -3 -3 485
-2 1083 l3 1088 930 538 c512 296 934 539 938 539 5 1 0 -14 -11 -31z m-15922
-1082 l0 -1084 -897 -518 c-494 -285 -918 -529 -942 -543 l-43 -24 28 50 c201
351 1850 3203 1852 3203 1 0 2 -488 2 -1084z m985 -511 c505 -874 927 -1606
938 -1625 l21 -34 -44 25 c-25 14 -449 258 -942 543 l-898 518 0 1086 c0 597
2 1083 4 1081 2 -2 417 -719 921 -1594z m3015 511 l0 -1084 -897 -518 c-494
-285 -918 -529 -942 -543 l-43 -24 28 50 c180 314 1850 3203 1852 3203 1 0 2
-488 2 -1084z m985 -511 c505 -874 927 -1606 938 -1625 l21 -34 -44 25 c-25
14 -449 258 -942 543 l-898 518 0 1086 c0 597 2 1083 4 1081 2 -2 417 -719
921 -1594z m3015 511 l0 -1084 -897 -518 c-494 -285 -918 -529 -942 -543 l-43
-24 28 50 c180 314 1850 3203 1852 3203 1 0 2 -488 2 -1084z m985 -511 c505
-874 927 -1606 938 -1625 l21 -34 -44 25 c-25 14 -449 258 -942 543 l-898 518
0 1086 c0 597 2 1083 4 1081 2 -2 417 -719 921 -1594z m3015 511 l0 -1084
-897 -518 c-494 -285 -918 -529 -942 -543 l-43 -24 28 50 c180 314 1850 3203
1852 3203 1 0 2 -488 2 -1084z m985 -511 c505 -874 927 -1606 938 -1625 l21
-34 -44 25 c-25 14 -449 258 -942 543 l-898 518 0 1086 c0 597 2 1083 4 1081
2 -2 416 -719 921 -1594z m-12012 -1172 l931 -538 -937 -3 c-515 -1 -1359 -1
-1874 0 l-937 3 930 537 c511 296 935 537 943 538 7 0 432 -242 944 -537z
m4000 0 l931 -538 -937 -3 c-515 -1 -1359 -1 -1874 0 l-937 3 930 537 c511
296 935 537 943 538 7 0 432 -242 944 -537z m4000 0 l931 -538 -937 -3 c-515
-1 -1359 -1 -1874 0 l-937 3 930 537 c511 296 935 537 943 538 7 0 432 -242
944 -537z m4000 0 l931 -538 -937 -3 c-515 -1 -1359 -1 -1874 0 l-937 3 930
537 c511 296 935 537 943 538 7 0 432 -242 944 -537z m-11064 -607 c-2 -2
-426 -247 -941 -545 l-938 -542 -937 542 c-516 298 -940 543 -942 545 -2 2
843 4 1879 4 1036 0 1881 -2 1879 -4z m4000 0 c-2 -2 -426 -247 -941 -545
l-938 -542 -937 542 c-516 298 -940 543 -942 545 -2 2 843 4 1879 4 1036 0
1881 -2 1879 -4z m4000 0 c-2 -2 -426 -247 -941 -545 l-938 -542 -937 542
c-516 298 -940 543 -942 545 -2 2 843 4 1879 4 1036 0 1881 -2 1879 -4z m4000
0 c-2 -2 -426 -247 -941 -545 l-938 -542 -937 542 c-516 298 -940 543 -942
545 -2 2 843 4 1879 4 1036 0 1881 -2 1879 -4z m-14801 -626 l892 -515 0
-1085 c0 -596 -4 -1080 -8 -1075 -6 7 -1830 3166 -1870 3238 -2 5 18 -4 45
-20 27 -15 451 -260 941 -543z m2810 528 c-80 -143 -1843 -3195 -1850 -3203
-4 -5 -8 479 -8 1075 l0 1085 938 542 c515 298 939 542 940 542 2 1 -7 -18
-20 -41z m1190 -528 l892 -515 0 -1085 c0 -596 -4 -1080 -8 -1075 -7 8 -1769
3058 -1850 3204 l-25 43 50 -28 c27 -16 451 -261 941 -544z m2810 528 c-80
-143 -1843 -3195 -1850 -3203 -4 -5 -8 479 -8 1075 l0 1085 938 542 c515 298
939 542 940 542 2 1 -7 -18 -20 -41z m1190 -528 l892 -515 0 -1085 c0 -596 -4
-1080 -8 -1075 -7 8 -1769 3058 -1850 3204 l-25 43 50 -28 c27 -16 451 -261
941 -544z m2810 528 c-80 -143 -1843 -3195 -1850 -3203 -4 -5 -8 479 -8 1075
l0 1085 938 542 c515 298 939 542 940 542 2 1 -7 -18 -20 -41z m1190 -528
l892 -515 0 -1085 c0 -596 -4 -1080 -8 -1075 -7 8 -1769 3058 -1850 3204 l-25
43 50 -28 c27 -16 451 -261 941 -544z m2829 563 c-31 -58 -1863 -3231 -1869
-3238 -4 -5 -8 479 -8 1075 l0 1085 938 542 c515 298 938 542 940 542 2 1 1
-2 -1 -6z m-15937 -1115 l-1 -1083 -940 -542 c-517 -298 -939 -538 -937 -534
8 20 1871 3241 1874 3241 2 0 4 -487 4 -1082z m1009 -547 c512 -888 931 -1615
931 -1616 0 -2 -423 241 -940 539 l-939 541 -1 1085 c0 613 4 1080 9 1075 4
-6 427 -736 940 -1624z m2991 547 l-1 -1083 -940 -542 c-517 -298 -939 -538
-937 -534 8 20 1870 3241 1874 3241 2 0 4 -487 4 -1082z m1009 -547 c512 -887
931 -1615 931 -1616 0 -2 -423 241 -940 539 l-939 541 -1 1085 c0 619 4 1080
9 1075 5 -6 428 -736 940 -1624z m2991 547 l-1 -1083 -940 -542 c-517 -298
-939 -538 -937 -534 8 20 1870 3241 1874 3241 2 0 4 -487 4 -1082z m1009 -547
c512 -887 931 -1615 931 -1616 0 -2 -423 241 -940 539 l-939 541 -1 1085 c0
619 4 1080 9 1075 5 -6 428 -736 940 -1624z m2991 547 l-1 -1083 -940 -542
c-517 -298 -939 -538 -937 -534 8 20 1870 3241 1874 3241 2 0 4 -487 4 -1082z
m1009 -547 c512 -887 931 -1615 931 -1616 0 -2 -423 241 -940 539 l-939 541
-1 1085 c0 619 4 1080 9 1075 5 -6 428 -736 940 -1624z m2991 547 l-1 -1083
-940 -542 c-517 -298 -939 -538 -937 -534 8 19 1871 3241 1874 3241 2 0 4
-487 4 -1082z m1009 -547 c512 -888 931 -1615 931 -1616 0 -2 -423 241 -940
539 l-939 541 -1 1085 c0 615 4 1080 9 1075 4 -6 427 -736 940 -1624z m-16047
-1127 c502 -290 922 -533 933 -540 16 -12 -271 -14 -1864 -14 -1037 0 -1882 3
-1878 6 21 22 1875 1083 1884 1079 7 -2 424 -241 925 -531z m4000 0 c502 -290
922 -533 933 -540 16 -12 -271 -14 -1864 -14 -1037 0 -1882 3 -1878 6 21 22
1875 1083 1884 1079 7 -2 424 -241 925 -531z m4000 0 c502 -290 922 -533 933
-540 16 -12 -271 -14 -1864 -14 -1037 0 -1882 3 -1878 6 21 22 1875 1083 1884
1079 7 -2 424 -241 925 -531z m4000 0 c502 -290 922 -533 933 -540 16 -12
-271 -14 -1864 -14 -1037 0 -1882 3 -1878 6 21 22 1875 1083 1884 1079 7 -2
424 -241 925 -531z m4011 -6 l940 -543 -941 -3 c-518 -1 -1366 -1 -1884 0
l-941 3 939 542 c516 299 941 543 943 543 3 0 427 -244 944 -542z m-15074
-612 c-10 -10 -1862 -1076 -1869 -1076 -7 0 -1859 1066 -1869 1076 -2 2 839 4
1869 4 1030 0 1871 -2 1869 -4z m4000 0 c-10 -10 -1862 -1076 -1869 -1076 -7
0 -1859 1066 -1869 1076 -2 2 839 4 1869 4 1030 0 1871 -2 1869 -4z m4000 0
c-10 -10 -1862 -1076 -1869 -1076 -7 0 -1859 1066 -1869 1076 -2 2 839 4 1869
4 1030 0 1871 -2 1869 -4z m4000 0 c-10 -10 -1862 -1076 -1869 -1076 -7 0
-1859 1066 -1869 1076 -2 2 839 4 1869 4 1030 0 1871 -2 1869 -4z m4000 0
c-10 -10 -1862 -1076 -1869 -1076 -7 0 -1859 1066 -1869 1076 -2 2 839 4 1869
4 1030 0 1871 -2 1869 -4z m-18829 -599 l925 -534 2 -1089 c2 -822 0 -1084 -9
-1069 -29 51 -1804 3127 -1835 3179 -18 32 -28 56 -21 53 7 -3 429 -246 938
-540z m2858 521 c-11 -17 -1583 -2738 -1845 -3193 l-23 -40 3 1089 2 1089 930
538 c512 296 934 538 939 538 4 1 2 -9 -6 -21z m1142 -521 l925 -534 2 -1089
3 -1089 -23 40 c-282 490 -1835 3177 -1846 3195 -14 21 -14 23 -1 18 8 -3 431
-247 940 -541z m2858 521 c-11 -17 -1583 -2738 -1845 -3193 l-23 -40 3 1089 2
1089 930 538 c512 296 934 538 939 538 4 1 2 -9 -6 -21z m1142 -521 l925 -534
2 -1089 3 -1089 -23 40 c-399 693 -1835 3177 -1846 3195 -14 21 -14 23 -1 18
8 -3 431 -247 940 -541z m2858 521 c-11 -17 -1583 -2738 -1845 -3193 l-23 -40
3 1089 2 1089 930 538 c512 296 934 538 939 538 4 1 2 -9 -6 -21z m1142 -521
l925 -534 2 -1089 3 -1089 -23 40 c-399 693 -1835 3177 -1846 3195 -14 21 -14
23 -1 18 8 -3 431 -247 940 -541z m2858 521 c-8 -13 -412 -711 -898 -1553
-485 -841 -902 -1564 -926 -1605 l-44 -75 2 1089 3 1089 930 538 c512 296 934
538 939 538 4 1 2 -9 -6 -21z m1142 -521 l925 -534 2 -1089 3 -1089 -23 40
c-399 693 -1835 3177 -1846 3195 -14 21 -14 23 -1 18 8 -3 431 -247 940 -541z
m2836 486 c-30 -52 -1806 -3129 -1834 -3178 -9 -15 -11 247 -9 1069 l2 1089
930 538 c512 296 933 538 937 538 4 1 -8 -25 -26 -56z m-15906 -1056 l0 -1084
-907 -523 c-500 -288 -923 -533 -942 -544 l-34 -20 34 60 c117 207 1844 3194
1846 3194 2 0 3 -487 3 -1083z m1015 -562 c505 -874 920 -1594 923 -1600 3 -5
-10 0 -29 11 -19 11 -442 256 -941 544 l-908 523 0 1086 c0 1066 1 1085 19
1056 10 -16 432 -745 936 -1620z m2985 562 l0 -1084 -907 -523 c-500 -288
-923 -533 -942 -544 l-34 -20 34 60 c117 207 1844 3194 1846 3194 2 0 3 -487
3 -1083z m995 -527 c494 -855 909 -1575 924 -1600 l26 -45 -35 21 c-19 11
-443 256 -942 544 l-908 523 0 1086 c0 1067 1 1085 19 1056 10 -16 423 -730
916 -1585z m3005 527 l0 -1084 -907 -523 c-500 -288 -923 -533 -942 -544 l-34
-20 34 60 c117 207 1844 3194 1846 3194 2 0 3 -487 3 -1083z m995 -527 c494
-855 909 -1575 924 -1600 l26 -45 -35 21 c-19 11 -443 256 -942 544 l-908 523
0 1086 c0 1067 1 1085 19 1056 10 -16 423 -730 916 -1585z m3005 527 l0 -1084
-907 -523 c-500 -288 -923 -533 -942 -544 l-34 -20 34 60 c115 204 1844 3194
1846 3194 2 0 3 -487 3 -1083z m995 -527 c494 -855 909 -1575 924 -1600 l26
-45 -35 21 c-19 11 -443 256 -942 544 l-908 523 0 1086 c0 1067 1 1085 19
1056 10 -16 423 -730 916 -1585z m-12023 -1155 l934 -540 -938 -3 c-516 -1
-1360 -1 -1876 0 l-939 3 936 541 c515 298 939 541 942 540 3 0 426 -244 941
-541z m4000 0 l934 -540 -938 -3 c-516 -1 -1360 -1 -1876 0 l-939 3 936 541
c515 298 939 541 942 540 3 0 426 -244 941 -541z m4000 0 l934 -540 -938 -3
c-516 -1 -1360 -1 -1876 0 l-939 3 936 541 c515 298 939 541 942 540 3 0 426
-244 941 -541z m4000 0 l934 -540 -938 -3 c-516 -1 -1360 -1 -1876 0 l-939 3
936 541 c515 298 939 541 942 540 3 0 426 -244 941 -541z m-11077 -617 c-11
-6 -435 -251 -942 -544 l-923 -533 -922 533 c-508 293 -932 538 -943 544 -15
9 442 11 1865 11 1423 0 1880 -2 1865 -11z m4000 0 c-11 -6 -435 -251 -942
-544 l-923 -533 -922 533 c-508 293 -932 538 -943 544 -15 9 442 11 1865 11
1423 0 1880 -2 1865 -11z m4000 0 c-11 -6 -435 -251 -942 -544 l-923 -533
-922 533 c-508 293 -932 538 -943 544 -15 9 442 11 1865 11 1423 0 1880 -2
1865 -11z m4000 0 c-11 -6 -435 -251 -942 -544 l-923 -533 -922 533 c-508 293
-932 538 -943 544 -15 9 442 11 1865 11 1423 0 1880 -2 1865 -11z m-14777
-622 l882 -510 0 -1085 c0 -1068 -1 -1085 -19 -1056 -11 17 -432 745 -936
1620 -505 875 -920 1594 -923 1599 -6 11 -61 42 996 -568z m2799 532 c-13 -24
-428 -743 -922 -1598 -493 -855 -906 -1568 -916 -1585 -18 -29 -19 -11 -19
1056 l0 1085 938 542 c515 298 939 542 940 542 2 0 -7 -19 -21 -42z m1201
-532 l882 -510 0 -1085 c0 -1068 -1 -1085 -19 -1056 -11 17 -423 730 -916
1585 -494 855 -909 1575 -923 1599 l-26 44 60 -34 c33 -19 457 -263 942 -543z
m2799 532 c-13 -24 -428 -743 -922 -1598 -493 -855 -906 -1568 -916 -1585 -18
-29 -19 -11 -19 1056 l0 1085 938 542 c515 298 939 542 940 542 2 0 -7 -19
-21 -42z m1201 -532 l882 -510 0 -1085 c0 -1068 -1 -1085 -19 -1056 -11 17
-423 730 -916 1585 -494 855 -909 1575 -923 1599 l-26 44 60 -34 c33 -19 457
-263 942 -543z m2799 532 c-13 -24 -428 -743 -922 -1598 -493 -855 -906 -1568
-916 -1585 -18 -29 -19 -11 -19 1056 l0 1085 938 542 c515 298 939 542 940
542 2 0 -7 -19 -21 -42z m1201 -532 l882 -510 0 -1085 c0 -1068 -1 -1085 -19
-1056 -11 17 -423 730 -916 1585 -494 855 -909 1575 -923 1599 l-26 44 60 -34
c33 -19 457 -263 942 -543z m2819 567 c-1167 -2023 -1843 -3195 -1858 -3218
-18 -29 -19 -11 -19 1056 l0 1085 938 542 c515 298 938 542 940 542 2 0 1 -3
-1 -7z m-15949 -2198 c-18 -16 -1859 -1077 -1863 -1073 -1 2 419 732 934 1624
l936 1621 3 -1081 c2 -856 -1 -1083 -10 -1091z m1065 460 c487 -841 883 -1531
882 -1533 -2 -2 -423 239 -936 536 l-934 538 -2 1090 -3 1089 55 -95 c30 -52
452 -783 938 -1625z m2935 -460 c-18 -16 -1859 -1077 -1863 -1073 -1 2 419
732 934 1624 l936 1621 3 -1081 c2 -856 -1 -1083 -10 -1091z m1065 460 c487
-841 883 -1531 882 -1533 -2 -2 -423 239 -936 536 l-934 538 -2 1090 -3 1089
55 -95 c30 -52 452 -783 938 -1625z m2935 -460 c-18 -16 -1859 -1077 -1863
-1073 -1 2 419 732 934 1624 l936 1621 3 -1081 c2 -856 -1 -1083 -10 -1091z
m1065 460 c487 -841 883 -1531 882 -1533 -2 -2 -423 239 -936 536 l-934 538
-2 1090 -3 1089 55 -95 c30 -52 452 -783 938 -1625z m2935 -460 c-18 -16
-1859 -1077 -1863 -1073 -1 2 419 732 934 1624 l936 1621 3 -1081 c2 -856 -1
-1083 -10 -1091z m1065 460 c487 -841 883 -1531 882 -1533 -2 -2 -423 239
-936 536 l-934 538 -2 1090 -3 1089 55 -95 c30 -52 452 -783 938 -1625z m2935
-460 c-18 -16 -1859 -1077 -1863 -1073 -1 2 419 732 934 1624 l936 1621 3
-1081 c2 -856 -1 -1083 -10 -1091z m1065 460 c487 -841 883 -1531 882 -1533
-2 -2 -423 239 -936 536 l-934 538 -2 1090 -3 1089 55 -95 c30 -52 452 -783
938 -1625z"/>
</g>
</svg>
